<?xml version="1.0" encoding="UTF-8"?>
<svg id="Layer_2" data-name="Layer 2" xmlns="http://www.w3.org/2000/svg" viewBox="0 0 500 500">
  <defs>
    <style>
      .cls-1 {
        fill: #3e3c38;
        stroke-width: 0px;
      }
    </style>
  </defs>
  <path class="cls-1" d="M.04,37.26c5.5,50.91,27.52,92.12,59.04,109.85,29.03,16.33,60.94,11.87,90.11-.64,4.34,7.21,7.38,15.57,9.47,25.53.62,2.86,3.27,5.12,6.74,4.79,3.67-.36,5.91-4,5.22-7.31-2.69-12.75-6.88-23.38-13.04-32.43,2.26-87.72-42.34-91.5-89.54-95.47-19.74-1.64-40.06-3.36-59.78-10.69C4.03,29.3-.45,32.76.04,37.26ZM67.01,53.72c43.72,3.67,76.13,6.42,78.33,69.61-12.55-10.88-30.02-18.9-54.18-25.55-3.36-.86-6.62,1.05-7.5,4.26-.88,3.24,1.02,6.6,4.26,7.5,25.65,7.05,42.52,15.11,53.66,26.84-29.66,12.02-55.38,12.06-76.5.1-26.13-14.82-45.09-48.45-51.66-91.06,18.27,5.34,36.87,6.91,53.59,8.29Z"/>
  <path class="cls-1" d="M335.84,0c-3.37,0-6.1,2.73-6.1,6.1,0,28.04-9.5,49.21-24.1,67.07h-79.08c-3.36,0-6.1,2.73-6.1,6.1s2.74,6.1,6.1,6.1h67.89c-13.86,13.61-30.48,25.54-47.52,37.72-43.22,30.88-87.91,62.81-87.91,126.92,0,54.07,32.24,85.64,67.07,111.71,2.66,2,6.49,1.46,8.54-1.23,2.01-2.7,1.46-6.53-1.23-8.54-28.29-21.16-49.39-42.41-57.96-71.46h132.84c3.36,0,6.1-2.74,6.1-6.1s-2.74-6.1-6.1-6.1h-135.59c-.94-5.79-1.48-11.85-1.48-18.29,0-28.04,9.5-49.21,24.1-67.07h79.08c3.36,0,6.1-2.73,6.1-6.1s-2.74-6.1-6.1-6.1h-67.89c13.86-13.61,30.48-25.54,47.52-37.72,43.22-30.88,87.91-62.81,87.91-126.92,0-3.37-2.73-6.1-6.1-6.1Z"/>
  <path class="cls-1" d="M308.28,24.39h-135.59c-.94-5.79-1.48-11.85-1.48-18.29,0-3.37-2.73-6.1-6.1-6.1s-6.1,2.73-6.1,6.1c0,54.07,32.24,85.64,67.07,111.71,2.66,2,6.49,1.46,8.54-1.23,2.01-2.7,1.46-6.53-1.23-8.54-28.29-21.16-49.39-42.41-57.96-71.46h132.84c3.36,0,6.1-2.73,6.1-6.1s-2.74-6.1-6.1-6.1Z"/>
  <path class="cls-1" d="M274.86,138.29c-2.66-2-6.49-1.46-8.54,1.23-2.01,2.7-1.46,6.53,1.23,8.54,28.29,21.16,49.39,42.41,57.96,71.46h-132.84c-3.36,0-6.1,2.74-6.1,6.1s2.74,6.1,6.1,6.1h135.59c.94,5.79,1.48,11.85,1.48,18.29,0,28.04-9.5,49.21-24.1,67.07h-79.08c-3.36,0-6.1,2.74-6.1,6.1s2.74,6.1,6.1,6.1h67.89c-13.86,13.61-30.48,25.54-47.52,37.72-43.22,30.88-87.91,62.81-87.91,126.92,0,3.37,2.73,6.1,6.1,6.1s6.1-2.73,6.1-6.1c0-28.04,9.5-49.21,24.1-67.07h79.08c3.36,0,6.1-2.74,6.1-6.1s-2.74-6.1-6.1-6.1h-67.89c13.86-13.61,30.48-25.54,47.52-37.72,43.22-30.88,87.91-62.81,87.91-126.92,0-54.07-32.24-85.64-67.07-111.71Z"/>
  <path class="cls-1" d="M186.57,469.51c0,3.36,2.74,6.1,6.1,6.1h135.59c.94,5.79,1.48,11.85,1.48,18.29,0,3.37,2.73,6.1,6.1,6.1s6.1-2.73,6.1-6.1c0-54.07-32.24-85.64-67.07-111.71-2.66-2-6.49-1.46-8.54,1.23-2.01,2.7-1.46,6.53,1.23,8.54,28.29,21.16,49.39,42.41,57.96,71.46h-132.84c-3.36,0-6.1,2.74-6.1,6.1Z"/>
  <path class="cls-1" d="M346.61,195.06c3.51.55,6.28-1.89,6.9-4.75,1.68-7.68,4.09-14.18,7.49-19.82,24.53,10.01,52.16,14.02,77.45-.45,26.26-15.03,44.67-48.75,49.3-90.11.5-4.5-3.89-7.92-8.12-6.41-16.67,5.98-33.73,7.36-50.37,8.69-40.34,3.28-78.43,6.41-76.66,78.8-5.18,7.47-8.71,16.23-10.99,26.72-.71,3.29,1.42,6.76,5.01,7.32ZM430.25,94.39c13.74-1.12,28.99-2.36,44.06-6.43-5.67,33.16-20.98,59.48-41.94,71.48-17.4,9.98-38.69,10.25-63.28,1.02,9.31-8.78,23.07-14.98,43.58-20.43,3.24-.86,5.19-4.19,4.31-7.46-.83-3.24-4.19-5.14-7.46-4.31-19.6,5.2-34.04,11.46-44.64,19.8,2.39-48.58,28.07-50.66,65.36-53.67Z"/>
  <path class="cls-1" d="M79.85,389.55c25.28,14.47,52.92,10.46,77.45.45,3.4,5.64,5.81,12.13,7.49,19.82.62,2.86,3.39,5.3,6.9,4.75,3.59-.56,5.72-4.03,5.01-7.32-2.28-10.49-5.81-19.25-10.99-26.72,1.77-72.39-36.32-75.52-76.66-78.8-16.65-1.33-33.71-2.72-50.37-8.69-4.23-1.52-8.63,1.9-8.12,6.41,4.63,41.36,23.04,75.08,49.3,90.11ZM88.04,313.9c37.29,3.01,62.96,5.09,65.36,53.67-10.6-8.34-25.03-14.6-44.64-19.8-3.26-.83-6.62,1.07-7.46,4.31-.88,3.26,1.07,6.6,4.31,7.46,20.51,5.45,34.27,11.65,43.58,20.43-24.59,9.23-45.88,8.96-63.28-1.02-20.96-12-36.27-38.32-41.94-71.48,15.08,4.07,30.32,5.31,44.06,6.43Z"/>
  <path class="cls-1" d="M491.75,274.77c-19.73,7.33-40.04,9.05-59.78,10.69-47.2,3.97-91.8,7.75-89.54,95.47-6.16,9.05-10.36,19.68-13.04,32.43-.69,3.31,1.55,6.96,5.22,7.31,3.47.34,6.12-1.93,6.74-4.79,2.09-9.96,5.13-18.32,9.47-25.53,29.17,12.5,61.08,16.97,90.11.64,31.52-17.74,53.54-58.94,59.04-109.85.49-4.5-3.99-7.95-8.22-6.38ZM434.92,380.38c-21.12,11.96-46.84,11.92-76.5-.1,11.14-11.73,28.01-19.79,53.66-26.84,3.24-.91,5.14-4.26,4.26-7.5-.88-3.22-4.14-5.12-7.5-4.26-24.17,6.65-41.63,14.67-54.18,25.55,2.21-63.19,34.62-65.94,78.33-69.61,16.72-1.38,35.32-2.95,53.59-8.29-6.57,42.61-25.53,76.24-51.66,91.06Z"/>
</svg>