<?xml version="1.0" encoding="UTF-8"?>
<svg id="Layer_1" data-name="Layer 1" xmlns="http://www.w3.org/2000/svg" viewBox="0 0 442.52 510.97">
  <defs>
    <style>
      .cls-1 {
        stroke-width: 2px;
      }

      .cls-1, .cls-2, .cls-3, .cls-4, .cls-5, .cls-6, .cls-7, .cls-8, .cls-9 {
        stroke: #000;
        stroke-miterlimit: 10;
      }

      .cls-1, .cls-2, .cls-3, .cls-4, .cls-5, .cls-8 {
        fill-rule: evenodd;
      }

      .cls-1, .cls-2, .cls-4, .cls-5, .cls-8 {
        fill: none;
      }

      .cls-2 {
        stroke-width: 1.96px;
      }

      .cls-3 {
        fill: #f2e3b5;
      }

      .cls-3, .cls-4, .cls-5, .cls-6, .cls-7, .cls-8, .cls-9 {
        stroke-linecap: round;
      }

      .cls-3, .cls-7 {
        stroke-width: 3.26px;
      }

      .cls-4 {
        stroke-dasharray: 0 0 5 10;
        stroke-width: 5px;
      }

      .cls-5 {
        stroke-width: 3px;
      }

      .cls-6 {
        fill: #ffc30b;
        stroke-width: 10px;
      }

      .cls-8 {
        stroke-width: 6.53px;
      }

      .cls-9 {
        fill: #f0c610;
        stroke-width: 3.09px;
      }

      .cls-10 {
        stroke-width: 0px;
      }
    </style>
  </defs>
  <polygon class="cls-6" points="4.7 130.63 4.7 380.34 220.96 505.2 437.22 380.34 437.22 130.63 220.96 5.77 4.7 130.63"/>
  <path class="cls-4" d="m332.21,190.26c-1.99,1.51-6.8,4.82-8.95,8.73-5.06,9.24-.79,16.74-2,26-1.76,13.46-12.82,26.54-25.5,31.5-14.91,5.84-31.48.25-38-2-4.13-1.42-30.8-10.61-39-35-1.72-5.1-5.2-15.46,0-24,6.67-10.96,27.7-15.44,40.5-7.5,8.21,5.09,9.16,16.14,8,26-.31,2.63-.92,4.93-1.89,7.05-4.61,10.08-14.05,15.15-18.61,17.45-47.91,24.28-49.73,26.74-59.28,26.08-10.71-.74-30.25-5.32-35-18-4.07-10.86,6.59-17.29,2-32-3.71-11.89-14.56-20.15-17-22-2.35-1.79-4.03-2.75-10-6-27.7-15.06-29.83-15.1-33-19-7.03-8.65-7.59-22.03-4-32,6.14-17.09,25.4-26.82,42-24,15.31,2.6,23.7,15.09,27,20,3.03,4.51,10.05,14.96,8,28-1.47,9.37-6.89,15.36-12,21-12.38,13.68-26.98,18.92-33,21-8.98,3.11-27.59,9.53-47,3-13.08-4.4-18.65-12.16-37-17-4-1.05-9.76-2.27-17-2-6.76.26-12.27,1.72-16,3"/>
  <g>
    <g>
      <ellipse class="cls-9" cx="365.36" cy="177.49" rx="33.17" ry="16.75" transform="translate(-33.11 98.69) rotate(-14.72)"/>
      <path class="cls-8" d="m373.66,160.76c-1.45,2.48-1.08,4.01-1.12,5.26-.05,1.51.35,2.73,1.14,5.18.6,1.87.92,2.82,1.76,3.8,1.08,1.26,2.36,1.96,3.82,2.76.65.36,2.55,1.36,5.48,2.25,1.65.5,2.49-.08,5.47.24"/>
      <path class="cls-8" d="m347.17,168.11c-1.25,2.88-2.44,4.65-2.36,6.15.1,1.81.62,3.31,1.66,6.31.8,2.28,1.21,3.45,2.17,4.68,1.23,1.58,2.61,2.51,4.18,3.57.7.47,2.75,1.81,5.83,3.05,1.74.71,1.45.81,4.54,1.39"/>
      <path class="cls-8" d="m359.92,162.74c-1.25,2.88-.73,4.75-.65,6.25.1,1.81.62,3.31,1.66,6.31.8,2.28,1.21,3.45,2.17,4.68,1.23,1.58,2.61,2.51,4.18,3.57.7.47,2.75,1.81,5.83,3.05,1.74.71,2.99,1.08,6.08,1.66"/>
      <ellipse class="cls-7" cx="389.34" cy="167.85" rx="11.58" ry="13.47" transform="translate(20.93 377.68) rotate(-52.99)"/>
    </g>
    <path class="cls-5" d="m394.02,158.07c1.42-1.91,2.88-2.8,3.92-3.26,2.56-1.14,3.35-1.01,5.88-1.31,1.39-.16,2.12-.29,3.26-.65"/>
    <path class="cls-5" d="m390.1,156.92c.64-1.48,1.39-2.56,1.96-3.26.52-.65,1.05-1.31,1.96-1.96.88-.62,1.7-.95,2.61-1.31.77-.3,1.3-.45,1.96-.65,1.55-.47,1.81-.54,3.92-1.31"/>
    <path class="cls-3" d="m375.21,161.04c.32-2.17.76-7.4-2.15-12.21-1.25-2.07-2.79-3.51-3.36-4.05-1-.93-3.23-2.95-6.69-4.12-2.47-.83-5.86-1.98-9.34-.34-4.29,2.02-5.37,6.72-5.41,6.92-.71,3.35.67,6.32,2.46,10.17.59,1.27,1.1,2.15,1.97,3.63,2.03,3.47,3.94,6.26,5.44,8.32"/>
    <path class="cls-3" d="m364.64,169.32c-5.68,3.17-8.51,4.75-11.75,5.22-6.82.99-12.24-1.57-14.36-2.61-1.38-.67-5.03-2.61-8.49-6.53-2.79-3.16-7.44-8.44-5.88-13.71,1.15-3.9,5.13-5.84,6.53-6.53,3.57-1.75,6.92-1.51,9.79-1.31,3.11.22,5.27.92,8.49,1.96,2.39.77,6.09,1.99,10.44,4.57,3.73,2.21,6.11,4.33,7.83,5.88,3.55,3.19,5.32,4.78,5.22,6.53-.04.68-.36,2.36-7.83,6.53Z"/>
    <path class="cls-2" d="m370.52,164.1c-7.86-4.23-14.8-5.46-18.93-5.88-4.09-.41-9.12-.86-15.01,1.31-3.22,1.18-5.63,2.75-7.18,3.92"/>
    <path class="cls-2" d="m338.53,145.17c-.85,3.16-.32,5.48,0,6.53.51,1.64,1.4,3.04,1.96,3.92.72,1.12,1.42,2,1.96,2.61"/>
  </g>
  <g>
    <path class="cls-10" d="m57.88,368.68c-6.38,0-10.95-1.52-13.71-4.55-2.77-3.03-4.15-7.05-4.15-12.04,0-1.31.12-2.88.35-4.72s.54-4.07.92-6.68c.61-3.76,1.08-7.13,1.38-10.08.31-2.96.46-6.2.46-9.74,0-4.07-.12-7.38-.35-9.91-1.31.77-2.27,1.15-2.88,1.15-1.23,0-1.84-1.38-1.84-4.15,0-2.15.48-3.98,1.44-5.47.96-1.5,2.55-2.9,4.78-4.21,2.23-1.38,5.05-2.57,8.47-3.57,3.42-1,7.09-1.5,11.01-1.5,6.38,0,11.22,1.46,14.52,4.38,3.3,2.92,4.96,6.76,4.96,11.52,0,3.07-.65,5.92-1.96,8.53-1.31,2.61-3.15,4.92-5.53,6.92,9.6,1.54,14.41,7.07,14.41,16.6,0,5.15-1.46,9.84-4.38,14.06-2.92,4.23-6.88,7.53-11.87,9.91-4.84,2.38-10.18,3.57-16.02,3.57Zm4.61-12.79c3.46,0,6.59-.48,9.39-1.44,2.8-.96,5.05-2.36,6.74-4.21,1.69-1.84,2.54-3.99,2.54-6.45,0-3.15-1.11-5.38-3.34-6.68-2.23-1.31-4.8-1.96-7.72-1.96-1.23,0-2.77.12-4.61.35-.77.16-1.65.23-2.65.23-1.69,0-3.09-.69-4.21-2.07-1.11-1.38-1.67-3.11-1.67-5.19,0-1.46.65-2.38,1.96-2.77,9.37-2.46,14.06-6.72,14.06-12.79,0-4.84-3.34-7.26-10.03-7.26-2.46,0-5.49.42-9.1,1.27,0,3.77-.19,7.7-.58,11.81-.38,4.11-.96,8.4-1.73,12.85-.46,3.07-.83,5.67-1.09,7.78-.27,2.11-.4,3.82-.4,5.13,0,4.15,1.04,7.09,3.11,8.82,2.08,1.73,5.19,2.59,9.33,2.59Z"/>
    <path class="cls-10" d="m114.58,368.91c-2.07,0-3.86-.63-5.36-1.9s-2.4-3.63-2.71-7.09c-.15-2.61-.48-5.49-.98-8.64-.5-3.15-1.13-6.15-1.9-8.99-.77-2.84-1.65-5.07-2.65-6.68-.54-.84-1.13-1.48-1.79-1.9-.65-.42-1.63-.71-2.94-.86-.85-.08-1.42-.35-1.73-.81-.31-.46-.46-1.19-.46-2.19,0-3.15.86-5.47,2.59-6.97,1.73-1.5,3.71-2.25,5.94-2.25s4.22.75,5.76,2.25c1.54,1.5,2.73,3.48,3.57,5.94.84,2.46,1.44,5.17,1.79,8.12.35,2.96.52,5.93.52,8.93,0,1.23-.02,2.52-.06,3.86-.04,1.34-.06,2.48-.06,3.4,0,.85.17,1.5.52,1.96s1.02.69,2.02.69c1.23,0,2.65-.36,4.26-1.09,1.61-.73,3.21-1.79,4.78-3.17,1.57-1.38,2.88-3.01,3.92-4.9,1.04-1.88,1.56-3.98,1.56-6.28,0-1.31-.21-2.69-.63-4.15-.42-1.46-1.09-2.69-2.02-3.69-.92-1-1.6-1.79-2.02-2.36-.42-.58-.63-1.25-.63-2.02,0-1.38.63-2.65,1.9-3.8s2.77-2.07,4.49-2.77c1.73-.69,3.25-1.04,4.55-1.04,2.23,0,3.65.92,4.26,2.77.61,1.84.92,3.88.92,6.11,0,4.23-.77,8.64-2.3,13.25-1.54,4.61-3.61,8.91-6.22,12.91-2.61,4-5.55,7.22-8.82,9.68-3.27,2.46-6.63,3.69-10.08,3.69Z"/>
    <path class="cls-10" d="m163.1,368.79c-4.61,0-8.32-1.44-11.12-4.32-2.81-2.88-4.21-7.01-4.21-12.39,0-3.84.75-7.66,2.25-11.47,1.5-3.8,3.67-7.24,6.51-10.31,2.84-3.07,6.26-5.53,10.26-7.38,3.99-1.84,8.49-2.77,13.48-2.77,4.61,0,8.55.79,11.81,2.36,3.27,1.58,4.9,3.71,4.9,6.4,0,.69-.08,1.59-.23,2.71-.16,1.11-.35,2.02-.58,2.71-.23.62-.56,1.17-.98,1.67-.42.5-.98.75-1.67.75-.31,0-.88-.12-1.73-.35-.31,1.61-.54,3.19-.69,4.73-.15,1.54-.23,3.07-.23,4.61,0,2.92.44,5.51,1.33,7.78.88,2.27,2.63,3.67,5.24,4.21.69.15,1.25.39,1.67.69.42.31.63.96.63,1.96,0,.85-.21,1.92-.63,3.23-.42,1.31-1.23,2.48-2.42,3.51-1.19,1.04-2.9,1.56-5.13,1.56-3,0-5.3-1.09-6.91-3.28-1.61-2.19-2.42-5.32-2.42-9.39-2.07,3.76-4.71,6.84-7.89,9.22-3.19,2.38-6.93,3.57-11.24,3.57Zm3.69-11.99c3.07,0,5.78-.96,8.12-2.88,2.34-1.92,4.17-4.34,5.47-7.26.84-1.84,1.5-3.86,1.96-6.05s.77-4.36.92-6.51c-1.31-.61-2.8-1.11-4.49-1.5-1.69-.38-3.46-.58-5.3-.58-4.69,0-8.55,1.38-11.58,4.15-3.04,2.77-4.55,6.22-4.55,10.37,0,3.07.84,5.55,2.54,7.43,1.69,1.88,3.99,2.82,6.92,2.82Z"/>
    <path class="cls-10" d="m215.43,368.45c-2.23,0-3.88-.62-4.96-1.84-1.08-1.23-1.61-3.38-1.61-6.45,0-1.46.12-3.34.35-5.65.23-2.31.5-4.8.81-7.49.46-3.3.86-6.76,1.21-10.37s.52-7.07.52-10.37c0-4.69-.21-9.54-.63-14.58-.42-5.03-1.6-9.43-3.51-13.2-.69-1.54-1.04-2.65-1.04-3.34,0-1,.44-1.96,1.33-2.88.88-.92,1.98-1.71,3.28-2.36,1.31-.65,2.57-.98,3.8-.98,2,0,3.5.9,4.5,2.71,1,1.81,1.65,4.26,1.96,7.38.31,3.11.46,6.67.46,10.66,0,6.07-.25,11.33-.75,15.79-.5,4.46-.98,8.38-1.44,11.76-.31,2.23-.6,4.34-.86,6.34-.27,2-.4,3.8-.4,5.42,0,2.69.44,4.63,1.33,5.82.88,1.19,2.32,2.36,4.32,3.51.54.31.94.6,1.21.86.27.27.4.67.4,1.21,0,.62-.31,1.58-.92,2.88-.62,1.31-1.67,2.5-3.17,3.57s-3.55,1.61-6.17,1.61Z"/>
    <path class="cls-10" d="m249.88,368.79c-5.38,0-9.58-1.63-12.62-4.9-3.04-3.26-4.55-7.82-4.55-13.66s1.23-10.91,3.69-15.44c2.46-4.53,5.84-8.1,10.14-10.72,4.3-2.61,9.18-3.92,14.64-3.92,3.69,0,6.61.62,8.76,1.84,2.15,1.23,3.23,2.92,3.23,5.07,0,1.92-.92,3.8-2.77,5.65-.69.69-1.6,1.33-2.71,1.9-1.11.58-1.98.86-2.59.86-.69,0-1.27-.27-1.73-.81-.77-.84-1.77-1.65-3-2.42-1.23-.77-2.96-1.15-5.19-1.15-3.77,0-6.84,1.29-9.22,3.86-2.38,2.58-3.57,5.94-3.57,10.08,0,3.77,1.07,6.8,3.23,9.11,2.15,2.3,4.99,3.46,8.53,3.46,1.84,0,3.86-.33,6.05-.98,2.19-.65,4.13-1.59,5.82-2.82.84-.77,1.73-1.15,2.65-1.15,1.54,0,2.3.96,2.3,2.88,0,2.54-1.27,4.96-3.8,7.26-1.92,1.77-4.48,3.21-7.66,4.32-3.19,1.11-6.4,1.67-9.62,1.67Z"/>
    <path class="cls-10" d="m293.79,368.79c-4.61,0-8.32-1.44-11.12-4.32-2.81-2.88-4.21-7.01-4.21-12.39,0-3.84.75-7.66,2.25-11.47,1.5-3.8,3.67-7.24,6.51-10.31,2.84-3.07,6.26-5.53,10.26-7.38,3.99-1.84,8.49-2.77,13.48-2.77,4.61,0,8.55.79,11.81,2.36,3.27,1.58,4.9,3.71,4.9,6.4,0,.69-.08,1.59-.23,2.71-.16,1.11-.35,2.02-.58,2.71-.23.62-.56,1.17-.98,1.67-.42.5-.98.75-1.67.75-.31,0-.88-.12-1.73-.35-.31,1.61-.54,3.19-.69,4.73-.15,1.54-.23,3.07-.23,4.61,0,2.92.44,5.51,1.33,7.78.88,2.27,2.63,3.67,5.24,4.21.69.15,1.25.39,1.67.69.42.31.63.96.63,1.96,0,.85-.21,1.92-.63,3.23-.42,1.31-1.23,2.48-2.42,3.51-1.19,1.04-2.9,1.56-5.13,1.56-3,0-5.3-1.09-6.91-3.28-1.61-2.19-2.42-5.32-2.42-9.39-2.07,3.76-4.71,6.84-7.89,9.22-3.19,2.38-6.93,3.57-11.24,3.57Zm3.69-11.99c3.07,0,5.78-.96,8.12-2.88,2.34-1.92,4.17-4.34,5.47-7.26.84-1.84,1.5-3.86,1.96-6.05s.77-4.36.92-6.51c-1.31-.61-2.8-1.11-4.49-1.5-1.69-.38-3.46-.58-5.3-.58-4.69,0-8.55,1.38-11.58,4.15-3.04,2.77-4.55,6.22-4.55,10.37,0,3.07.84,5.55,2.54,7.43,1.69,1.88,3.99,2.82,6.92,2.82Z"/>
    <path class="cls-10" d="m346.11,368.45c-2.23,0-3.88-.62-4.96-1.84-1.08-1.23-1.61-3.38-1.61-6.45,0-1.46.12-3.34.35-5.65.23-2.31.5-4.8.81-7.49.46-3.3.86-6.76,1.21-10.37s.52-7.07.52-10.37c0-4.69-.21-9.54-.63-14.58-.42-5.03-1.6-9.43-3.51-13.2-.69-1.54-1.04-2.65-1.04-3.34,0-1,.44-1.96,1.33-2.88.88-.92,1.98-1.71,3.28-2.36,1.31-.65,2.57-.98,3.8-.98,2,0,3.5.9,4.5,2.71,1,1.81,1.65,4.26,1.96,7.38.31,3.11.46,6.67.46,10.66,0,6.07-.25,11.33-.75,15.79-.5,4.46-.98,8.38-1.44,11.76-.31,2.23-.6,4.34-.86,6.34-.27,2-.4,3.8-.4,5.42,0,2.69.44,4.63,1.33,5.82.88,1.19,2.32,2.36,4.32,3.51.54.31.94.6,1.21.86.27.27.4.67.4,1.21,0,.62-.31,1.58-.92,2.88-.62,1.31-1.67,2.5-3.17,3.57s-3.55,1.61-6.17,1.61Z"/>
    <path class="cls-10" d="m380.57,368.79c-5.38,0-9.58-1.63-12.62-4.9-3.04-3.26-4.55-7.82-4.55-13.66s1.23-10.91,3.69-15.44c2.46-4.53,5.84-8.1,10.14-10.72,4.3-2.61,9.18-3.92,14.64-3.92,3.69,0,6.61.62,8.76,1.84,2.15,1.23,3.23,2.92,3.23,5.07,0,1.92-.92,3.8-2.77,5.65-.69.69-1.6,1.33-2.71,1.9-1.11.58-1.98.86-2.59.86-.69,0-1.27-.27-1.73-.81-.77-.84-1.77-1.65-3-2.42-1.23-.77-2.96-1.15-5.19-1.15-3.77,0-6.84,1.29-9.22,3.86-2.38,2.58-3.57,5.94-3.57,10.08,0,3.77,1.07,6.8,3.23,9.11,2.15,2.3,4.99,3.46,8.53,3.46,1.84,0,3.86-.33,6.05-.98,2.19-.65,4.13-1.59,5.82-2.82.84-.77,1.73-1.15,2.65-1.15,1.54,0,2.3.96,2.3,2.88,0,2.54-1.27,4.96-3.8,7.26-1.92,1.77-4.48,3.21-7.66,4.32-3.19,1.11-6.4,1.67-9.62,1.67Z"/>
  </g>
  <path class="cls-1" d="m359.71,140.91c-.85,3.16-.32,5.48,0,6.53.51,1.64,1.4,3.04,1.96,3.92"/>
</svg>