<?xml version="1.0" encoding="utf-8"?>
<!-- Generator: Adobe Illustrator 28.1.0, SVG Export Plug-In . SVG Version: 6.00 Build 0)  -->
<svg version="1.1" id="Capa_1" xmlns="http://www.w3.org/2000/svg" xmlns:xlink="http://www.w3.org/1999/xlink" x="0px" y="0px"
	 viewBox="0 0 2885.9 376.1" style="enable-background:new 0 0 2885.9 376.1;" xml:space="preserve">
<g fill="#3e3c38">
	<path d="M569.3,146.9H207.1l37.8-37.4c18.5-18.2,18.6-48,0.4-66.5s-48-18.6-66.5-0.4L61.2,159c-18.5,18.2-18.6,48-0.4,66.5
		l117.9,119.3c9.2,9.3,21.3,14,33.4,14c11.9,0,23.9-4.5,33-13.6c18.5-18.2,18.6-48,0.4-66.5l-37.3-37.7h361.5"/>
	<path d="M2599.8,146.9c0.2,0,27.2,0.3,62.5-10.9c32.1-10.2,114-68.4,132.6-90.3c9.3-10.9,22.5-16.6,35.8-16.6
		c10.8,0,21.6,3.7,30.4,11.2c19.8,16.8,22.2,46.5,5.4,66.2c-99.6,117.1-265,134.4-266.7,134.3"/>
	<rect x="384.5" y="146.9" width="2215.7" height="94"/>
</g>
</svg>
